<!-- Generator: Adobe Illustrator 19.0.0, SVG Export Plug-In  -->
<svg version="1.1"
	 xmlns="http://www.w3.org/2000/svg" xmlns:xlink="http://www.w3.org/1999/xlink" xmlns:a="http://ns.adobe.com/AdobeSVGViewerExtensions/3.0/"
	 x="0px" y="0px" width="89.784px" height="72.276px" viewBox="0 0 89.784 72.276"
	 style="enable-background:new 0 0 89.784 72.276;" xml:space="preserve">
<style type="text/css">
	.st0{fill:#D3411A;}
	.st1{fill:#439338;}
	.st2{fill:#E5C41F;}
	.st3{fill:#7C7C7C;}
</style>
<defs>
</defs>
<path d="M84.397,0H5.387C2.412,0,0,2.413,0,5.387v61.502c0,2.974,2.413,5.387,5.387,5.387h79.01c2.976,0,5.387-2.413,5.387-5.387
	V5.387C89.784,2.412,87.373,0,84.397,0z M85.295,13.468v12.457H33.22V13.468H85.295z M22.895,4.489c1.485,0,2.693,1.208,2.693,2.693
	s-1.208,2.693-2.693,2.693s-2.694-1.208-2.694-2.693C20.201,5.698,21.41,4.489,22.895,4.489z M15.488,4.489
	c1.485,0,2.693,1.208,2.693,2.693s-1.208,2.693-2.693,2.693s-2.694-1.208-2.694-2.693C12.794,5.698,14.003,4.489,15.488,4.489z
	 M8.081,4.489c1.485,0,2.693,1.208,2.693,2.693S9.566,9.875,8.081,9.875S5.388,8.667,5.388,7.182
	C5.388,5.698,6.596,4.489,8.081,4.489z M4.49,67.787V13.468h25.588v54.319H4.49z M33.22,67.787V29.068h52.075v38.719H33.22z"/>
<path class="st0" d="M8.269,9.875H7.893c-1.378,0-2.505-1.127-2.505-2.505V6.994c0-1.378,1.127-2.505,2.505-2.505h0.376
	c1.378,0,2.505,1.127,2.505,2.505V7.37C10.774,8.748,9.647,9.875,8.269,9.875z"/>
<path class="st1" d="M23.083,9.875h-0.376c-1.378,0-2.505-1.127-2.505-2.505V6.994c0-1.378,1.127-2.505,2.505-2.505h0.376
	c1.378,0,2.505,1.127,2.505,2.505V7.37C25.588,8.748,24.46,9.875,23.083,9.875z"/>
<path class="st2" d="M15.676,9.875h-0.376c-1.378,0-2.505-1.127-2.505-2.505V6.994c0-1.378,1.127-2.505,2.505-2.505h0.376
	c1.378,0,2.505,1.127,2.505,2.505V7.37C18.181,8.748,17.053,9.875,15.676,9.875z"/>
<rect x="30.078" y="13.468" class="st3" width="3.142" height="54.319"/>
<rect x="33.22" y="25.925" class="st3" width="52.075" height="3.143"/>
</svg>