<?xml version="1.0" encoding="utf-8"?>
<!-- Generator: Adobe Illustrator 19.0.0, SVG Export Plug-In . SVG Version: 6.00 Build 0)  -->
<svg version="1.2" baseProfile="tiny" id="Capa_1" xmlns="http://www.w3.org/2000/svg" xmlns:xlink="http://www.w3.org/1999/xlink"
	 x="0px" y="0px" viewBox="-53.6 50.4 90 81.2" xml:space="preserve">
<g>
	<path d="M-47,57.3l6.7,0l0.1,13.5l-6.7,0L-47,57.3 M-49.2,57.3l0.1,13.5c0,1.2,1,2.2,2.3,2.2l6.7,0c1.2,0,2.2-1,2.2-2.3L-38,57.3
		c0-1.2-1-2.2-2.3-2.2l-6.7,0C-48.2,55.1-49.2,56.1-49.2,57.3L-49.2,57.3z"/>
	<path fill="#320EC9" d="M-33.5,57.3l0.1,13.5c0,1.2,1,2.2,2.3,2.2l6.7,0c1.2,0,2.2-1,2.2-2.3l-0.1-13.5c0-1.2-1-2.2-2.3-2.2l-6.7,0
		C-32.5,55-33.5,56-33.5,57.3z"/>
	<path d="M-17.7,55.1l0.1,22.3l-31.5,0.1c-2.5,0-4.5,2-4.5,4.5l0.2,45c0,2.5,2,4.5,4.5,4.5l67.5-0.3c2.5,0,4.5-2,4.5-4.5l-0.1-36
		l9,0c2.5,0,4.5-2,4.5-4.5l-0.1-31.4c0-2.5-2-4.5-4.5-4.5l-45,0.2C-15.7,50.6-17.7,52.6-17.7,55.1z M18.6,126.8l-67.5,0.3l-0.2-45
		l31.5-0.1l0,4.5c0,2.5,2,4.5,4.5,4.5l31.5-0.1L18.6,126.8z M31.8,62.3l0.1,23.9l-9,0l-4.5,0l-31.5,0.1l0-4.5l0-4.5l-0.1-14.9
		L31.8,62.3z M31.8,54.9l0,4.7l-45,0.2l0-4.7L31.8,54.9z"/>
	<g>
		<path fill="#E22390" d="M27.6,127.6c0,0.6,0.5,1.1,1.1,1.1s1.1-0.5,1.1-1.1l0-4.2l-2.2,0L27.6,127.6z"/>
	</g>
	<g>
		<polygon fill="#CEB732" points="27.5,97.1 27.6,122.3 29.8,122.3 29.7,97.1 29.6,97.1 28.5,95.3 		"/>
	</g>
	<rect x="27.4" y="123.6" transform="matrix(4.037371e-003 1 -1 4.037371e-003 153.298 95.5375)" width="2.7" height="2.3"/>
	
		<rect x="8" y="38.6" transform="matrix(4.037371e-003 1 -1 4.037371e-003 70.3623 51.5181)" fill="#D86736" width="2.7" height="45"/>
</g>
</svg>
