<!-- Generator: Adobe Illustrator 19.0.0, SVG Export Plug-In  -->
<svg version="1.1"
	 xmlns="http://www.w3.org/2000/svg" xmlns:xlink="http://www.w3.org/1999/xlink" xmlns:a="http://ns.adobe.com/AdobeSVGViewerExtensions/3.0/"
	 x="0px" y="0px" width="102.829px" height="72px" viewBox="0 0 102.829 72" style="enable-background:new 0 0 102.829 72;"
	 xml:space="preserve">
<style type="text/css">
	.st0{fill:#D3411A;}
	.st1{fill:#439338;}
	.st2{fill:#E5C41F;}
	.st3{fill:#2351AD;}
</style>
<defs>
</defs>
<path class="st0" d="M8.278,10.033l-0.376,0c-1.378,0-2.505-1.127-2.505-2.505V7.152c0-1.378,1.127-2.505,2.505-2.505h0.376
	c1.378,0,2.505,1.127,2.505,2.505v0.376C10.782,8.906,9.655,10.033,8.278,10.033z"/>
<path class="st1" d="M23.091,10.033l-0.376,0c-1.378,0-2.505-1.127-2.505-2.505V7.152c0-1.378,1.127-2.505,2.505-2.505h0.376
	c1.378,0,2.505,1.127,2.505,2.505v0.376C25.596,8.906,24.469,10.033,23.091,10.033z"/>
<path class="st2" d="M15.684,10.033l-0.376,0c-1.378,0-2.505-1.127-2.505-2.505V7.152c0-1.378,1.127-2.505,2.505-2.505h0.376
	c1.378,0,2.505,1.127,2.505,2.505v0.376C18.189,8.906,17.062,10.033,15.684,10.033z"/>
<path d="M23,68H4V14h26v35h3V29h52v20h5V5.545C90,2.57,87.381,0,84.406,0H5.396C2.42,0,0,2.571,0,5.545v61.502
	C0,70.021,2.421,72,5.396,72H23V68z M33,14h52v12H33V14z M22.904,4.647c1.485,0,2.693,1.208,2.693,2.693
	c0,1.485-1.208,2.693-2.693,2.693c-1.485,0-2.694-1.208-2.694-2.693C20.209,5.856,21.418,4.647,22.904,4.647z M15.496,4.647
	c1.485,0,2.693,1.208,2.693,2.693c0,1.485-1.208,2.693-2.693,2.693s-2.694-1.208-2.694-2.693
	C12.802,5.856,14.011,4.647,15.496,4.647z M8.089,4.647c1.485,0,2.693,1.208,2.693,2.693c0,1.485-1.208,2.693-2.693,2.693
	S5.396,8.825,5.396,7.34C5.396,5.856,6.604,4.647,8.089,4.647z"/>
<g>
	<path class="st3" d="M30.622,55.035l2.191,8.423c0.479,1.849,0.924,3.561,1.232,5.273h0.103c0.377-1.679,0.925-3.459,1.473-5.239
		l2.705-8.457h2.533l2.568,8.286c0.616,1.985,1.096,3.731,1.473,5.41h0.103c0.273-1.679,0.719-3.425,1.267-5.376l2.363-8.32h2.979
		L46.27,71.607h-2.739l-2.533-7.91c-0.582-1.849-1.062-3.492-1.473-5.444h-0.068c-0.411,1.986-0.925,3.698-1.507,5.479l-2.671,7.876
		h-2.739L27.54,55.035H30.622z"/>
	<path class="st3" d="M56.231,55.035l2.191,8.423c0.479,1.849,0.924,3.561,1.232,5.273h0.103c0.377-1.679,0.925-3.459,1.473-5.239
		l2.705-8.457h2.533l2.568,8.286c0.616,1.985,1.096,3.731,1.473,5.41h0.103c0.274-1.679,0.719-3.425,1.267-5.376l2.363-8.32h2.979
		l-5.342,16.572h-2.739l-2.533-7.91c-0.582-1.849-1.062-3.492-1.473-5.444h-0.068c-0.411,1.986-0.925,3.698-1.507,5.479
		l-2.671,7.876h-2.739l-4.999-16.572H56.231z"/>
	<path class="st3" d="M81.839,55.035l2.191,8.423c0.479,1.849,0.924,3.561,1.232,5.273h0.103c0.377-1.679,0.925-3.459,1.473-5.239
		l2.705-8.457h2.533l2.568,8.286c0.616,1.985,1.096,3.731,1.473,5.41h0.103c0.273-1.679,0.719-3.425,1.267-5.376l2.363-8.32h2.979
		l-5.342,16.572h-2.739l-2.533-7.91c-0.582-1.849-1.062-3.492-1.473-5.444h-0.068c-0.411,1.986-0.925,3.698-1.507,5.479
		l-2.671,7.876h-2.739l-4.999-16.572H81.839z"/>
</g>
</svg>