<!-- Generator: Adobe Illustrator 19.0.0, SVG Export Plug-In  -->
<svg version="1.1"
	 xmlns="http://www.w3.org/2000/svg" xmlns:xlink="http://www.w3.org/1999/xlink" xmlns:a="http://ns.adobe.com/AdobeSVGViewerExtensions/3.0/"
	 x="0px" y="0px" width="63px" height="82.622px" viewBox="0 0 63 82.622" style="enable-background:new 0 0 63 82.622;"
	 xml:space="preserve">
<defs>
</defs>
<path d="M63,36.991C63,16.594,48.869,0,31.5,0S0,16.594,0,36.991c0,0,0.008,13.814,0.01,13.848C0.008,50.975,0,65.888,0,65.888
	c0,15,16.555,16.734,29.007,16.734c0.104,0,0.205-0.011,0.303-0.031c2.001-0.158,3.587-1.818,3.587-3.859
	c0-2.145-1.745-3.889-3.89-3.889s-3.889,1.745-3.889,3.889c0,0.281,0.033,0.553,0.09,0.817C9.891,78.968,3,74.688,3,65.888v-4.354
	c0.943,1.057,2.055,1.665,3.273,1.665c3.577,0,6.274-5.14,6.274-11.955S9.85,39.289,6.273,39.289c-1.219,0-2.331,0.608-3.273,1.665
	v-3.963C3,18.248,15.785,3,31.5,3S60,18.248,60,36.991v3.963c-0.943-1.057-2.055-1.665-3.273-1.665
	c-3.577,0-6.274,5.14-6.274,11.955s2.697,11.955,6.274,11.955c3.576,0,6.273-5.14,6.273-11.955c0-0.137-0.008-0.269-0.01-0.405
	c0.002-0.034,0.01-0.066,0.01-0.1V36.991z"/>
</svg>