<!-- Generator: Adobe Illustrator 19.0.0, SVG Export Plug-In  -->
<svg version="1.1"
	 xmlns="http://www.w3.org/2000/svg" xmlns:xlink="http://www.w3.org/1999/xlink" xmlns:a="http://ns.adobe.com/AdobeSVGViewerExtensions/3.0/"
	 x="0px" y="0px" width="76.066px" height="71.989px" viewBox="0 0 76.066 71.989"
	 style="enable-background:new 0 0 76.066 71.989;" xml:space="preserve">
<style type="text/css">
	.st0{fill:#CE383F;}
</style>
<defs>
</defs>
<path d="M76.066,60.532H0V0h76.066C76.066,0,76.066,60.532,76.066,60.532z M1.57,58.962h72.926V1.569H1.57V58.962z"/>
<rect x="47.719" y="64.806" transform="matrix(-0.707 -0.7072 0.7072 -0.707 49.1779 151.5546)" width="16.528" height="1.569"/>
<rect x="20.062" y="57.326" transform="matrix(-0.7071 -0.7071 0.7071 -0.7071 -10.7905 126.711)" width="1.57" height="16.528"/>
<rect x="53.402" y="14.662" transform="matrix(-0.8296 -0.5584 0.5584 -0.8296 83.3034 82.1451)" class="st0" width="1.57" height="27.398"/>
<rect x="29.305" y="33.845" transform="matrix(-0.7445 -0.6676 0.6676 -0.7445 41.3181 85.0715)" class="st0" width="15.265" height="1.57"/>
<rect x="19.565" y="26.578" transform="matrix(-0.744 -0.6681 0.6681 -0.744 11.3958 76.4927)" class="st0" width="1.57" height="18.972"/>
<path class="st0" d="M12.309,50.047c-3.026,0-5.489-2.463-5.489-5.487c0-3.026,2.463-5.489,5.489-5.489
	c3.023,0,5.485,2.463,5.485,5.489C17.794,47.584,15.332,50.047,12.309,50.047z"/>
<path class="st0" d="M29.03,33.195c-3.026,0-5.488-2.463-5.488-5.489c0-3.024,2.462-5.487,5.488-5.487s5.489,2.463,5.489,5.487
	C34.519,30.732,32.056,33.195,29.03,33.195z"/>
<path class="st0" d="M44.576,47.955c-3.096,0-5.617-2.521-5.617-5.617c0-3.098,2.521-5.618,5.617-5.618
	c3.098,0,5.617,2.521,5.617,5.618C50.193,45.434,47.674,47.955,44.576,47.955z"/>
<path class="st0" d="M63.781,20.521c-3.17,0-5.75-2.579-5.75-5.748c0-3.17,2.58-5.749,5.75-5.749c3.168,0,5.746,2.579,5.746,5.749
	C69.527,17.942,66.949,20.521,63.781,20.521z"/>
</svg>