<!-- Generator: Adobe Illustrator 19.0.0, SVG Export Plug-In  -->
<svg version="1.1"
	 xmlns="http://www.w3.org/2000/svg" xmlns:xlink="http://www.w3.org/1999/xlink" xmlns:a="http://ns.adobe.com/AdobeSVGViewerExtensions/3.0/"
	 x="0px" y="0px" width="83.66px" height="82.34px" viewBox="0 0 83.66 82.34" style="enable-background:new 0 0 83.66 82.34;"
	 xml:space="preserve">
<style type="text/css">
	.st0{fill:#5BBC5F;}
	.st1{fill:#D64321;}
	.st2{fill:#305CBF;}
	.st3{fill:#D6D61D;}
</style>
<defs>
</defs>
<g>
	<path d="M48.79,21.34V3.06c0-0.95-0.431-1.8-1.11-2.36c-0.15-0.12-0.31-0.23-0.479-0.33C46.77,0.14,46.27,0,45.74,0H3.05
		C1.37,0,0,1.37,0,3.06v76.23c0,1.689,1.37,3.05,3.05,3.05h42.69c1.69,0,3.051-1.36,3.051-3.05V56.87h-4.32v10.6H4.32V4.96h40.15
		v16.38H48.79z M24.39,70.14c2.43,0,4.39,1.97,4.39,4.391c0,2.42-1.96,4.38-4.39,4.38c-2.42,0-4.38-1.96-4.38-4.38
		C20.01,72.11,21.97,70.14,24.39,70.14z"/>
</g>
<g>
	<path class="st0" d="M33.35,36.21v13.61c0,1.189-0.96,2.159-2.15,2.159H17.59c-1.19,0-2.16-0.97-2.16-2.159V36.21
		c0-1.19,0.97-2.16,2.16-2.16H31.2C32.39,34.05,33.35,35.02,33.35,36.21z"/>
</g>
<g>
	<path class="st1" d="M83.66,14.4v17.88c0,1.57-1.271,2.84-2.83,2.84h-9.31v-7.99c0-3.19-2.6-5.79-5.79-5.79h-5.61V14.4
		c0-1.56,1.27-2.83,2.83-2.83h17.88C82.39,11.57,83.66,12.84,83.66,14.4z"/>
</g>
<g>
	<path class="st2" d="M69.52,27.13v18.5h-6.81c-2.29,0-4.15,1.87-4.15,4.16v5.08H41.78c-2.1,0-3.79-1.69-3.79-3.79V27.13
		c0-2.09,1.69-3.79,3.79-3.79h23.95C67.82,23.34,69.52,25.04,69.52,27.13z"/>
</g>
<g>
	<path class="st3" d="M78.47,49.79V63.4c0,1.19-0.96,2.16-2.15,2.16H62.71c-1.19,0-2.15-0.97-2.15-2.16V49.79
		c0-1.19,0.96-2.16,2.15-2.16h13.61C77.51,47.63,78.47,48.6,78.47,49.79z"/>
</g>
</svg>