<!-- Generator: Adobe Illustrator 19.0.0, SVG Export Plug-In  -->
<svg version="1.1"
	 xmlns="http://www.w3.org/2000/svg" xmlns:xlink="http://www.w3.org/1999/xlink" xmlns:a="http://ns.adobe.com/AdobeSVGViewerExtensions/3.0/"
	 x="0px" y="0px" width="81px" height="67.92px" viewBox="0 0 81 67.92" style="enable-background:new 0 0 81 67.92;"
	 xml:space="preserve">
<style type="text/css">
	.st0{fill:#543AEF;}
</style>
<defs>
</defs>
<path d="M62,50.92H51c-0.552,0-1-0.448-1-1s0.448-1,1-1h11c9.08,0,17-8.65,17-18.5c0-9.62-7.34-17.44-16.36-17.44
	c-1.839-0.049-3.672,0.235-5.41,0.84l-0.8,0.29l-0.42-0.74C52.249,6.461,45.056,2.115,37.19,2c-10.97,0.176-20.152,8.37-21.57,19.25
	l-0.12,0.88h-0.89h-0.27C7.76,22.12,2,28.38,2,35.5s5.8,13.42,12.43,13.42H31c0.552,0,1,0.448,1,1s-0.448,1-1,1H14.43
	C6.74,50.92,0,43.71,0,35.5c0-8,6.37-15,13.79-15.4C15.716,8.622,25.573,0.163,37.21,0c8.301,0.096,15.95,4.521,20.17,11.67
	c1.719-0.494,3.502-0.726,5.29-0.69C72.8,10.98,81,19.7,81,30.42C81,41.34,72.14,50.92,62,50.92z"/>
<path class="st0" d="M41,67.92c-0.552,0-1-0.448-1-1v-40c0-0.552,0.448-1,1-1s1,0.448,1,1v40C42,67.472,41.552,67.92,41,67.92z"/>
<path class="st0" d="M51,36.92c-0.248-0.001-0.487-0.093-0.67-0.26L41,28.27l-9.33,8.4c-0.411,0.37-1.045,0.336-1.415-0.075
	s-0.336-1.045,0.075-1.415L41,25.57l10.67,9.6c0.414,0.365,0.454,0.997,0.089,1.411C51.567,36.799,51.29,36.922,51,36.92z"/>
</svg>