<!-- Generator: Adobe Illustrator 19.0.0, SVG Export Plug-In  -->
<svg version="1.1"
	 xmlns="http://www.w3.org/2000/svg" xmlns:xlink="http://www.w3.org/1999/xlink" xmlns:a="http://ns.adobe.com/AdobeSVGViewerExtensions/3.0/"
	 x="0px" y="0px" width="425.817px" height="44.123px" viewBox="0 0 425.817 44.123"
	 style="enable-background:new 0 0 425.817 44.123;" xml:space="preserve">
<style type="text/css">
	.st0{fill:#FFFFFF;}
</style>
<defs>
</defs>
<g id="XMLID_15_">
	<g id="XMLID_16_">
		<path id="XMLID_37_" class="st0" d="M6.368,32.065c8.491,0,16.982,0,25.472,0c0,2.123,0,4.245,0,6.368c-8.493,0-16.985,0-25.478,0
			C2.849,38.433,0,35.585,0,32.07c0-6.382,0-12.763,0-19.145c0-3.497,2.835-6.333,6.333-6.333c8.502,0,17.005,0,25.507,0
			c0,2.123,0,4.246,0,6.368c-7.758,0-15.516,0-23.275,0c-1.214,0-2.198,0.984-2.198,2.198c0,1.39,0,2.78,0,4.17
			c8.491,0,16.982,0,25.472,0c0,2.123,0,4.246,0,6.368c-7.815,0-15.63,0-23.444,0c-1.12,0-2.028,0.908-2.028,2.028
			C6.368,29.172,6.368,30.618,6.368,32.065z"/>
		<path id="XMLID_36_" class="st0" d="M280.196,32.065c8.491,0,16.982,0,25.472,0c0,2.123,0,4.245,0,6.368
			c-8.492,0-16.985,0-25.478,0c-3.514,0-6.363-2.849-6.363-6.363c0-6.382,0-12.763,0-19.145c0-3.497,2.835-6.333,6.333-6.333
			c8.503,0,17.005,0,25.507,0c0,2.123,0,4.246,0,6.368c-7.758,0-15.516,0-23.275,0c-1.214,0-2.198,0.984-2.198,2.198
			c0,1.39,0,2.78,0,4.17c8.491,0,16.982,0,25.472,0c0,2.123,0,4.246,0,6.368c-7.815,0-15.63,0-23.444,0
			c-1.12,0-2.028,0.908-2.028,2.028C280.196,29.172,280.196,30.618,280.196,32.065z"/>
		<path id="XMLID_35_" class="st0" d="M165.57,32.065c8.491,0,16.982,0,25.472,0c0,2.123,0,4.245,0,6.368
			c-8.493,0-16.985,0-25.478,0c-3.514,0-6.363-2.849-6.363-6.363c0-6.382,0-12.763,0-19.145c0-3.497,2.835-6.333,6.333-6.333
			c8.502,0,17.005,0,25.507,0c0,2.123,0,4.246,0,6.368c-7.758,0-15.516,0-23.275,0c-1.214,0-2.198,0.984-2.198,2.198
			c0,1.39,0,2.78,0,4.17c8.491,0,16.982,0,25.472,0c0,2.123,0,4.246,0,6.368c-7.815,0-15.63,0-23.444,0
			c-1.12,0-2.028,0.908-2.028,2.028C165.57,29.172,165.57,30.618,165.57,32.065z"/>
		<path id="XMLID_32_" class="st0" d="M256.846,7.35c-7.076,0-15.113,0-22.113,0c0,11,0,21,0,32c7,0,15.037,0,22.113,0
			c7.076,0,9.887-4.455,9.887-11.531c0-3.538,0-7.076,0-10.613C266.733,10.131,263.922,7.35,256.846,7.35z M259.733,27.034
			c0,3.354-0.382,6.316-3.778,6.316c-4.656,0-10.222,0-15.222,0c0-6,0-13,0-19c5,0,10.58,0,15.243,0c3.382,0,3.757,0.28,3.757,3.62
			C259.733,20.992,259.733,24.013,259.733,27.034z"/>
		<polygon id="XMLID_31_" class="st0" points="203.779,16.251 203.779,38.433 197.411,38.433 197.411,6.593 203.906,6.593 
			222.883,28.775 222.883,6.593 229.251,6.593 229.251,38.433 222.777,38.433 		"/>
		<path id="XMLID_28_" class="st0" d="M140.246,27.35c0.658,0,1.316,0,1.974,0c7.076,0,10.613-3.632,10.613-10
			c0-6.368-3.538-10-10.613-10c-7.076,0-15.488,0-22.488,0c0,11,0,21,0,32c2,0,5,0,6,0c0-4,0-8,0-12c2,0,3.695,0,4.728,0
			c4.981,4,9.963,8,14.944,12c3.262,0,6.524,0,9.786,0C150.209,35.35,145.228,31.35,140.246,27.35z M125.733,20.35c0-2,0-4,0-6
			c5,0,10.827,0,15.426,0c3.537,0,5.307,0.877,5.307,3c0,2.123-1.769,3-5.307,3C136.56,20.35,130.733,20.35,125.733,20.35z"/>
		<path id="XMLID_25_" class="st0" d="M104.012,7.35c-7.076,0-15.279,0-22.279,0c0,11,0,21,0,32c2,0,4,0,6,0c0-4,0-8,0-12
			c5,0,11.326,0,16.279,0c7.076,0,10.613-3.632,10.613-10C114.625,10.982,111.088,7.35,104.012,7.35z M102.951,20.35
			c-4.599,0-10.217,0-15.217,0c0-2,0-4,0-6c5,0,10.618,0,15.217,0c3.537,0,5.307,0.877,5.307,3
			C108.258,19.473,106.488,20.35,102.951,20.35z"/>
		<polygon id="XMLID_24_" class="st0" points="44.576,20.412 44.576,38.433 38.209,38.433 38.209,6.593 44.725,6.593 57.313,31.365 
			69.9,6.593 76.417,6.593 76.417,38.433 70.049,38.433 70.049,20.39 60.9,38.412 60.9,38.433 53.725,38.433 		"/>
		<path id="XMLID_21_" class="st0" d="M411.998,7.35h-6.92l-13.819,32h6.941l2.759-6h15.177l2.759,6h6.92L411.998,7.35z
			 M403.72,26.35l4.819-11.102l4.819,11.102H403.72z"/>
		<polygon id="XMLID_20_" class="st0" points="379.734,23.68 379.734,38.433 373.366,38.433 373.366,23.68 359.08,6.593 
			367.401,6.593 376.55,17.525 385.698,6.593 394.019,6.593 		"/>
		<g id="XMLID_17_">
			<path id="XMLID_19_" class="st0" d="M330.899,36.554c-0.639-0.881-1.244-1.723-1.817-2.525c-0.645-0.905-1.25-1.761-1.817-2.572
				c-0.655-0.937-1.259-1.814-1.817-2.636c-0.67-0.988-1.274-1.896-1.817-2.734c-0.7-1.079-1.3-2.04-1.817-2.903
				c-0.778-1.299-1.366-2.374-1.817-3.291c-0.868-1.762-1.231-2.939-1.468-3.987c-0.244-1.079-0.355-2.022-0.349-2.896
				c0.009-1.438,0.333-2.688,0.895-4.042c0.257-0.621,0.565-1.263,0.922-1.905c0.505-0.906,1.111-1.809,1.817-2.644
				c0.545-0.645,1.151-1.248,1.817-1.781c0.001-0.001,0.002-0.001,0.003-0.002c0.553-0.442,1.149-0.835,1.814-1.174
				c0.552-0.281,1.152-0.525,1.817-0.728c0.557-0.17,1.159-0.313,1.817-0.425c0.563-0.096,1.167-0.171,1.817-0.222
				c0.569-0.045,1.173-0.073,1.817-0.082c0.284-0.004,0.576-0.005,0.875-0.002c0.012,0,0.025,0,0.037,0c0.012,0,0.025,0,0.037,0
				c0.3-0.003,0.591-0.003,0.875,0.002c0.644,0.009,1.248,0.037,1.817,0.082c0.65,0.052,1.254,0.126,1.817,0.222
				c0.658,0.113,1.26,0.255,1.817,0.425c0.665,0.204,1.265,0.447,1.817,0.728c0.666,0.339,1.261,0.732,1.814,1.174
				c0.001,0.001,0.002,0.001,0.003,0.002c0.666,0.533,1.272,1.136,1.817,1.781c0.706,0.835,1.312,1.738,1.817,2.644
				c0.358,0.641,0.665,1.284,0.922,1.905c0.561,1.354,0.885,2.603,0.895,4.042c0.006,0.874-0.105,1.817-0.349,2.896
				c-0.237,1.049-0.6,2.225-1.468,3.987c-0.451,0.917-1.039,1.993-1.817,3.291c-0.517,0.863-1.117,1.824-1.817,2.903
				c-0.543,0.838-1.146,1.746-1.817,2.734c-0.558,0.822-1.162,1.699-1.817,2.636c-0.567,0.811-1.171,1.667-1.817,2.572
				c-0.573,0.803-1.178,1.644-1.817,2.525C335.715,36.56,331.541,36.56,330.899,36.554z"/>
			<polygon id="XMLID_18_" class="st0" points="330.894,38.462 330.894,44.123 336.362,44.123 336.362,38.462 335.076,38.462 
				335.076,41.246 332.183,41.246 332.183,38.462 			"/>
		</g>
	</g>
</g>
</svg>