<!-- Generator: Adobe Illustrator 19.0.0, SVG Export Plug-In  -->
<svg version="1.1"
	 xmlns="http://www.w3.org/2000/svg" xmlns:xlink="http://www.w3.org/1999/xlink" xmlns:a="http://ns.adobe.com/AdobeSVGViewerExtensions/3.0/"
	 x="0px" y="0px" width="153.085px" height="21.545px" viewBox="0 0 153.085 21.545"
	 style="enable-background:new 0 0 153.085 21.545;" xml:space="preserve">
<style type="text/css">
	.st0{fill:#FFFFFF;}
</style>
<defs>
</defs>
<path class="st0" d="M151.202,12.469l0.772,1.271l0.774-1.271h0.337v2.269h-0.337v-1.639l-0.774,1.28l-0.772-1.28v1.639h-0.336
	v-2.269H151.202z M149.486,14.738h0.336V12.79h0.624v-0.322h-1.574v0.322h0.614V14.738z M5.555,8.508
	C4.719,8.261,4.364,7.61,4.364,7.066c0-0.46,0.291-1.044,0.813-1.044c0.355,0,0.627,0.312,0.627,0.918L5.555,8.508z M8.269,0.23
	c-3.383,0-5.827,1.095-8.039,2.114C0.144,2.369,0.102,2.495,0.102,2.679c0,0.192,0.065,0.418,0.17,0.647
	c0,0.084,0.44,0.794,0.877,0.794c1.9-1.04,4.279-1.61,6.702-1.61c2.735,0,3.758,1.739,3.758,2.637c0,2.235-2.214,3.839-3.717,3.839
	c-0.083,0-0.144-0.02-0.23-0.02C7.749,8.863,8.164,7.86,8.164,6.799c0-1.383-1.315-2.114-2.342-2.114
	c-1.352,0-2.586,0.794-2.586,2.423c0,0.502,0.145,1.254,0.582,1.798c0.629,0.751,1.317,0.878,1.317,0.878
	c-0.27,1.42-0.688,2.152-0.834,2.506c-0.209,0.476-0.522,0.915-1.277,0.915c-0.687,0-1.521-0.288-2.273-0.686
	c-0.021-0.02-0.063-0.046-0.084-0.046C0.376,12.472,0,13.183,0,13.58c0,0.15,0.021,0.272,0.081,0.355
	c0.253,0.251,1.63,1.091,3.009,1.091c1.797,0,3.007-0.753,3.675-2.737l0.69-2.026c0-0.042,0.25-0.021,0.585-0.021
	c1.253,0,2.778-0.376,4.238-1.462c1.4-1.044,2.215-2.591,2.215-4.153C14.492,1.283,10.463,0.23,8.269,0.23 M121.86,2.863
	c0.742,0,1.34,0.601,1.34,1.337c0,0.744-0.599,1.344-1.34,1.344s-1.341-0.601-1.341-1.344C120.519,3.464,121.119,2.863,121.86,2.863
	 M109.796,5.14c-0.098,0.184-0.201,0.368-0.296,0.556c-0.077-0.076-0.16-0.151-0.246-0.234c-0.604-0.569-1.282-1.212-1.344-2.023
	c-0.049-0.602,0.186-0.986,0.386-1.212c0.276-0.293,0.665-0.468,1.067-0.468c0.363,0,0.697,0.147,0.945,0.401
	c0.142,0.151,0.29,0.481,0.25,0.928C110.495,3.844,110.141,4.505,109.796,5.14 M95.617,12.013c-0.398,0.501-1.296,1.145-2.257,1.145
	c-0.501,0-0.751-0.394-0.751-0.936c0-2.006,2.066-3.986,3.236-3.986c0.395,0,0.858,0.121,1.045,0.751L95.617,12.013z M53.707,8.152
	c-0.206-0.02-1.335-1.107-1.335-3.676c0-0.142,0-0.292,0.023-0.419c0.06-0.455,0.522-2.064,1.27-2.123
	c0.796,0,1.189,1.079,1.212,1.476c0,0.146,0.022,0.296,0.022,0.439C54.898,6.422,53.707,8.152,53.707,8.152 M44.855,12.013
	c-0.396,0.505-1.296,1.154-2.254,1.154c-0.502,0-0.754-0.403-0.754-0.941c0-2.005,2.066-3.99,3.235-3.99
	c0.399,0,0.856,0.125,1.047,0.751L44.855,12.013z M15.621,10.514c0-1.399,1.357-1.942,1.795-1.942c0.46,0,0.687,0.317,0.71,0.584
	c0,0.544-0.503,1.128-2.382,2.024C15.663,10.953,15.621,10.717,15.621,10.514 M120.907,1.593c0,0,0.394,0.117,0.765-0.765
	c0.096-0.381,0.024-0.706-0.203-0.749C121.323,0.055,120.823,0,120.626,0c-0.423,0-1.028,0.046-1.545,0.285
	c-0.814,0.371-1.272,1.048-1.637,1.834c-0.145,0.305-2.493,6.117-3.294,8.164c-0.191-0.218-2.432-2.223-3.173-3.238
	c0.143-0.422,0.349-0.865,0.564-1.324c0.468-0.999,0.952-2.031,0.896-3.134c-0.069-1.303-1.423-2.214-2.691-2.348
	c-0.128-0.017-0.255-0.022-0.381-0.022c-1.867,0-3.331,1.476-3.331,3.355c0,1.534,0.631,2.269,1.299,3.05
	c0.099,0.117,0.206,0.242,0.31,0.369c0.071,0.083,0.158,0.184,0.256,0.292c0.19,0.208,0.583,0.642,0.591,0.785
	c-0.002,0.092-0.153,0.41-0.224,0.564c-0.044,0.092-0.081,0.18-0.11,0.242c-0.426,1.04-1.853,4.375-2.332,5.319
	c-1.189,2.323-3.938,1.145-2.332-1.321c0.191-0.292,0.455-0.526,0.776-0.844c0,0,0.065-0.067,0.069-0.071
	c0.133-0.155-0.144-0.59-0.483-0.895c-0.526-0.476-0.735-0.363-0.963-0.246c-0.508,0.36-0.923,0.739-0.923,0.739
	s-1.983,1.563-3.03,1.563c-0.024,0-0.058,0.004-0.085,0l0.002-0.005c-0.481,0-0.65-0.451-0.65-0.768
	c0-0.272,0.086-0.544,0.169-0.727l1.774-4.267c0.018-0.02,0.018-0.062,0.018-0.08c0-0.296-0.645-0.547-1.292-0.547
	c-0.712,0-1.189,0.297-1.315,0.627L97.432,7.69c-0.46-0.711-1.128-0.962-1.9-0.962c-3.11,0-5.158,3.155-5.368,5.369
	c-0.704,0.56-1.495,1.041-2.059,1.045c-0.373-0.02-0.61-0.301-0.61-0.685c0-0.292,0.105-0.603,0.147-0.71l0.524-1.422
	c0.229-0.652,0.397-1.17,0.397-1.63c0-1.57-0.921-1.985-2.217-1.985c-0.707,0-1.395,0.335-1.395,0.335l2.258-5.445
	c0.024-0.025,0.024-0.067,0.024-0.083c0-0.292-0.648-0.544-1.274-0.544c-0.731,0-1.15,0.292-1.297,0.627l-3.495,8.579
	c-0.415,1.316-3.109,3.171-4.341,3.171c-1.565,0-2.069-1.145-2.069-2.001c0-0.272,0.065-0.564,0.128-0.794
	c0.165-0.522,0.836-1.834,2.046-1.834c0.772,0,1,0.393,1,0.81c0,0.292-0.123,0.585-0.27,0.731l0.481,0.355
	c1.168-0.46,1.564-1.296,1.564-1.985c0-1.295-1.378-1.923-2.714-1.923c-1.712,0-4.677,1.149-4.824,4.638
	c0,0.296,0.021,0.538,0.065,0.794c-0.796,0.731-1.423,0.956-2.008,0.956c-0.42,0-0.69-0.292-0.69-0.685
	c0-0.233,0.084-0.527,0.232-0.903c0,0,0.22-0.425,1.724-4.145c0.021-0.017,0.021-0.057,0.021-0.083c0-0.288-0.625-0.54-1.229-0.54
	c-0.692,0-1.089,0.289-1.235,0.623l-2.166,5.274c0,0-0.729,0.481-1.084,0.481c-0.502,0-0.898-0.188-0.898-0.769
	c0-0.209,0.085-0.438,0.19-0.706l1.044-2.531c0.102-0.251,0.284-0.719,0.284-0.995c0-0.665-0.459-1.375-1.924-1.375h-1.187
	c-0.856,0-1.296,0.773-1.296,1.125c0,0.083,0.02,0.208,0.27,0.208h0.963c0.334,0,0.52,0.272,0.52,0.543
	c0,0.125-0.138,0.451-0.244,0.723c0,0.02-0.125,0.25-0.979,2.403L62.5,11.854c-0.939,0.828-1.797,1.267-2.485,1.267
	c-1.649,0-0.375-2.361-2.38-3.401c4.089-2.469,6.613-7.851,6.738-8.119c0.02-0.025,0.02-0.042,0.02-0.083
	c0-0.292-0.688-0.544-1.378-0.544c-0.792,0-1.253,0.289-1.401,0.627c-2.085,4.801-4.5,6.74-5.545,7.075
	c-0.188,0.062-0.207,0.02-0.312,0.046c1.001-0.986,1.713-3.702,1.713-4.83c0-2.507-1.82-3.235-2.529-3.318
	c-0.291-0.042-0.563-0.067-0.834-0.067c-2.654,0-4.177,2.303-4.177,4.455c0,1.228,0.479,2.503,1.483,3.485
	c0.774,0.752,1.544,0.935,1.544,0.935c-0.856,1.671-1.755,3.74-4.511,3.74H48.44c-0.825,0-0.997-0.456-0.997-0.769
	c0-0.272,0.084-0.544,0.168-0.731l1.775-4.263c0.021-0.02,0.021-0.058,0.021-0.084c0-0.292-0.648-0.542-1.296-0.542
	c-0.71,0-1.19,0.292-1.314,0.626l-0.126,0.335c-0.459-0.711-1.13-0.961-1.904-0.961c-3.108,0-5.154,3.15-5.365,5.368
	c-0.712,0.564-1.502,1.041-2.068,1.041c-0.395,0-0.646-0.288-0.646-0.685c0-0.292,0.105-0.603,0.147-0.71l0.582-1.422
	c0.272-0.669,0.397-1.232,0.397-1.712c0-1.505-1.042-1.902-2.275-1.902c-0.71,0-1.4,0.335-1.4,0.335l2.277-5.491
	c0.021-0.021,0.021-0.063,0.021-0.087c0-0.294-0.648-0.544-1.275-0.544c-0.731,0-1.149,0.296-1.292,0.631l-3.385,8.311
	c-0.46,1.313-3.007,3.485-4.511,3.485c-1.567,0-2.067-1.145-2.067-2.001c0-0.272,0.063-0.564,0.125-0.794
	c0.167-0.522,0.834-1.834,2.046-1.834c0.772,0,1.004,0.393,1.004,0.81c0,0.292-0.127,0.585-0.274,0.731l0.481,0.355
	c1.168-0.46,1.565-1.296,1.565-1.985c0-1.295-1.377-1.923-2.712-1.923c-1.716,0-4.679,1.149-4.826,4.638
	c0,0.209,0,0.397,0.021,0.586c-0.962,0.918-2.338,1.565-3.466,1.565c-0.878,0-1.63-0.609-1.837-1.336
	c2.984-0.732,4.404-2.132,4.404-3.406c0-1.42-1.293-2.026-2.526-2.026c-2.277,0-4.741,1.671-4.741,4.303
	c0,2.423,1.816,3.991,4.279,3.991c1.527,0,3.259-0.753,4.366-1.714c0.878,1.418,2.673,1.668,3.676,1.668
	c1.023,0,2.463-0.372,3.633-1.881l-0.648,1.296c-0.02,0.041-0.02,0.067-0.02,0.109c0,0.333,0.689,0.476,1.381,0.476
	c0.666,0,1.23-0.288,1.313-0.585c0.081-0.397,0.919-2.231,0.938-2.357l1.297-3.109c0.523-0.444,0.938-0.589,1.231-0.589
	c0.564,0,0.688,0.459,0.688,0.669c0,0.188-0.061,0.334-0.123,0.455l-0.836,2.072c-0.146,0.377-0.229,0.773-0.229,1.087
	c0,1.922,1.483,2.357,2.319,2.357c1.233,0,2.212-0.627,3.215-1.38c0.315,0.694,0.961,1.317,2.09,1.317
	c1.126,0,2.358-0.355,3.361-1.232c0.481,0.96,0.931,1.254,3.157,1.254h-0.004c4.427,0,5.368-2.421,6.789-4.906
	c0.958,0.268,1.084,1.546,1.084,2.214c0,0.226-0.018,0.377-0.018,0.377c0,1.212,0.81,2.273,2.924,2.273
	c1.041,0,1.981-0.146,3.32-1.167c0.354,1.021,1.459,1.276,1.899,1.276c1.671,0,3.049-1.154,3.049-1.154
	c0-0.038,0.418,1.128,1.859,1.128c1.732,0,2.4-0.686,3.612-1.522c0.897,1.272,2.611,1.522,3.568,1.522
	c1.192,0,3.132-0.836,3.636-1.944l-0.606,1.359c-0.022,0.041-0.022,0.083-0.022,0.109c0,0.333,0.69,0.476,1.358,0.476
	c0.687,0,1.21-0.351,1.295-0.644c0.105-0.401,0.878-2.172,0.899-2.298l1.296-3.109c0.52-0.444,0.938-0.589,1.232-0.589
	c0.56,0,0.685,0.459,0.685,0.669c0,0.188-0.063,0.334-0.126,0.455l-0.831,2.072c-0.146,0.377-0.209,0.732-0.209,1.045
	c0,1.923,1.46,2.399,2.294,2.399h0.006c0.004,0,0.006,0,0.006-0.008c1.204-0.017,2.175-0.632,3.157-1.372
	c0.315,0.686,0.963,1.313,2.091,1.313c1.124,0,2.361-0.351,3.362-1.228c0.481,0.96,1.379,1.254,2.295,1.254h0.008
	c0.714,0,1.34-0.169,2.885-1.178c-1.403,4.043,4.302,5.631,6.089,1.913c0.855-1.772,2.532-5.533,2.714-5.958
	c0.603,0.706,3.602,3.735,4.509,4.76l0.231,0.259l0.132-0.322c0.566-1.376,1.128-2.787,1.719-4.287
	c0.928-2.349,2.968-7.216,3.009-7.313C119.801,1.993,120.048,1.517,120.907,1.593 M128.753,9.373
	c-0.083-0.443-0.623-0.881-1.448-0.881c-1.41,0-2.196,1.399-2.392,2.009c-0.071,0.263-0.144,0.602-0.144,0.92
	c0,0.918,0.687,1.913,2.224,2.059C127.604,12.063,128.083,10.948,128.753,9.373 M125.646,17.053
	c-1.009,0.183-2.263,0.731-2.49,1.671c-0.09,0.363-0.038,0.718,0.142,0.953c0.124,0.154,0.3,0.238,0.503,0.238
	c0.092,0,0.186-0.013,0.287-0.046c0.55-0.176,0.892-1.145,1.142-1.848c0.058-0.167,0.115-0.317,0.163-0.45
	c0.038-0.088,0.086-0.177,0.129-0.26C125.576,17.22,125.622,17.135,125.646,17.053 M144.791,7.484l-1.206,3.026
	c-0.281,0.643-0.538,1.261-0.591,1.863c-0.037,0.418,0.033,0.727,0.2,0.91c0.215,0.236,0.622,0.318,1.244,0.26
	c0.76-0.074,1.384-0.477,1.988-0.865c0.366-0.237,0.652-0.472,0.652-0.472s0.491,0.201,0.525,0.64
	c0.028,0.381-0.501,0.89-0.828,1.162c-0.949,0.789-1.849,1.06-2.946,1.06h-0.038c-1.113-0.011-1.96-0.388-2.488-1.091
	c-1.19,0.869-1.866,1.091-2.819,1.091c-0.837,0-2.301-0.481-2.301-2.403c0-0.313,0.065-0.668,0.212-1.044l0.836-2.073
	c0.062-0.121,0.123-0.267,0.123-0.455c0-0.205-0.123-0.665-0.687-0.665c-0.297,0-0.713,0.143-1.233,0.581
	c0,0-1.283,2.976-1.345,3.287c-0.002,0.005-0.002,0.009-0.002,0.013c-0.287,0.723-0.745,1.851-0.815,2.127
	c-0.088,0.289-0.61,0.647-1.3,0.647c-0.667,0-1.355-0.145-1.355-0.481c0-0.024,0-0.063,0.02-0.109l0.567-1.144
	c-0.235,0.164-1.625,1.337-2.43,1.583c-0.717,1.692-1.231,2.912-1.285,3.037c-0.096,0.231-0.186,0.468-0.282,0.732
	c-0.478,1.278-1.022,2.727-2.517,2.837c-0.077,0.004-0.154,0.004-0.229,0.004c-1.299,0-2.492-0.84-2.55-2.044
	c-0.11-2.382,2.016-3.481,4.093-3.727c0.035-0.083,0.151-0.342,0.314-0.718c-0.985-0.068-2.389-0.401-3.169-1.513
	c-1.214,0.836-1.882,1.524-3.612,1.524c-1.444,0-1.86-1.173-1.86-1.132c0,0-0.516-0.906-0.11-1.972
	c0.406-1.07,1.757-4.349,1.757-4.349c0.147-0.34,0.547-0.631,1.234-0.631c0.606,0,1.232,0.251,1.232,0.544
	c0,0.02,0,0.066-0.021,0.088c-1.501,3.715-1.63,3.985-1.63,3.985c-0.146,0.376-0.229,0.669-0.229,0.899
	c0,0.397,0.272,0.685,0.69,0.685c0.582,0,1.212-0.224,2.008-0.956c-0.046-0.251-0.067-0.497-0.067-0.789
	c0.15-3.494,3.112-4.639,4.823-4.639c0.816,0,1.648,0.234,2.175,0.711l0.23-0.527c0.144-0.335,0.525-0.619,1.193-0.619
	c0.59,0,1.192,0.218,1.192,0.51c0,0.016,0,0.058-0.019,0.076l-0.062,0.158c0,0.005-0.003,0.009-0.004,0.009l-0.06,0.158h-0.005
	c-1.385,3.319-1.165,2.801-2.423,5.779c1.155-0.622,2.319-1.78,2.473-2.009l3.859-9.402c0.149-0.339,0.566-0.631,1.298-0.631
	c0.624,0,1.274,0.251,1.274,0.547c0,0.017,0,0.059-0.022,0.083l-2.28,5.487c0,0,0.692-0.331,1.398-0.331
	c1.298,0,2.217,0.419,2.217,1.981c0,0.46-0.167,0.981-0.399,1.633l-0.52,1.417c-0.042,0.105-0.146,0.417-0.146,0.709
	c0,0.403,0.25,0.687,0.648,0.687c0.378,0,0.748-0.144,1.332-0.523c-0.023-0.764,0.187-1.433,0.435-2.043h-0.002l1.337-3.177h-1.057
	c-0.155,0-0.203-0.25-0.136-0.501c0.19-0.509,0.453-0.501,0.453-0.501h0.097h1.063l2.037-4.852c0.147-0.334,0.449-0.63,1.181-0.63
	c0.623,0,1.042,0.25,1.042,0.544c0,0.016,0,0.058-0.02,0.083l-1.945,4.855h2.314c0.158,0,0.201,0.238,0.139,0.493
	c-0.191,0.51-0.453,0.51-0.453,0.51h-0.042H144.791z"/>
</svg>