<!-- Generator: Adobe Illustrator 19.0.0, SVG Export Plug-In  -->
<svg version="1.1"
	 xmlns="http://www.w3.org/2000/svg" xmlns:xlink="http://www.w3.org/1999/xlink" xmlns:a="http://ns.adobe.com/AdobeSVGViewerExtensions/3.0/"
	 x="0px" y="0px" width="325.42px" height="80.88px" viewBox="0 0 325.42 80.88" style="enable-background:new 0 0 325.42 80.88;"
	 xml:space="preserve">
<style type="text/css">
	.st0{fill:#FFFFFF;}
</style>
<defs>
</defs>
<g>
	<g>
		<g>
			<g>
				<g>
					<path class="st0" d="M195.03,54.714c0,0.353-0.061,0.67-0.189,0.95c-0.122,0.293-0.293,0.524-0.512,0.731
						c-0.207,0.207-0.457,0.354-0.737,0.476c-0.286,0.11-0.579,0.17-0.896,0.17c-0.341,0-0.652-0.061-0.939-0.183
						c-0.293-0.109-0.536-0.28-0.744-0.487c-0.201-0.207-0.366-0.451-0.481-0.731c-0.116-0.28-0.177-0.597-0.177-0.926
						c0-0.341,0.067-0.658,0.189-0.939c0.128-0.28,0.299-0.536,0.506-0.731c0.213-0.207,0.469-0.366,0.756-0.463
						c0.286-0.122,0.585-0.171,0.89-0.171c0.317,0,0.609,0.049,0.896,0.171c0.28,0.097,0.53,0.256,0.737,0.463
						c0.219,0.195,0.39,0.451,0.512,0.731C194.969,54.055,195.03,54.372,195.03,54.714z M194.518,54.714
						c0-0.28-0.043-0.537-0.14-0.768c-0.097-0.232-0.219-0.439-0.384-0.609c-0.171-0.171-0.36-0.305-0.585-0.39
						c-0.213-0.085-0.457-0.134-0.713-0.134c-0.256,0-0.494,0.049-0.719,0.134c-0.219,0.085-0.421,0.219-0.585,0.39
						c-0.165,0.17-0.293,0.378-0.384,0.609c-0.091,0.232-0.14,0.488-0.14,0.768c0,0.268,0.043,0.524,0.128,0.743
						c0.079,0.244,0.201,0.439,0.36,0.61c0.165,0.17,0.36,0.317,0.573,0.414c0.238,0.097,0.488,0.146,0.768,0.146
						c0.256,0,0.5-0.036,0.713-0.134c0.225-0.097,0.414-0.219,0.585-0.39c0.165-0.17,0.286-0.366,0.384-0.609
						C194.476,55.262,194.518,55.006,194.518,54.714z"/>
				</g>
			</g>
		</g>
		<g>
			<g>
				<path class="st0" d="M32.416,57.566h-8.002L12.103,40.55l-5.796,5.424v11.592H0V3.739h6.308v33.8l14.59-13.566h9.02
					L16.869,36.15L32.416,57.566z"/>
				<path class="st0" d="M57.416,23.973h6.308v33.593h-6.308v-3.888c-3.157,2.632-7.113,4.619-11.293,4.619
					c-4.699,0-9.099-1.767-12.469-5.058c-3.303-3.377-5.132-7.777-5.132-12.47c0-4.692,1.829-9.093,5.132-12.469
					c3.37-3.303,7.77-5.059,12.469-5.059c4.181,0,8.136,1.975,11.293,4.619V23.973z M57.416,40.769
					c0-6.241-5.064-11.373-11.293-11.373c-6.235,0-11.293,5.132-11.293,11.373s5.059,11.36,11.293,11.36
					C52.352,52.129,57.416,47.01,57.416,40.769z"/>
				<path class="st0" d="M99.676,39.526v18.04h-6.308v-18.04c0-5.498-4.394-10.044-9.891-10.044c-5.431,0-9.904,4.546-9.904,10.044
					v18.04h-6.308V23.973h6.308v3.23c2.865-2.206,6.302-3.889,9.904-3.889c4.32,0,8.428,1.609,11.512,4.693
					C97.993,31.091,99.676,35.114,99.676,39.526z"/>
				<path class="st0" d="M137.809,40.769c0,4.693-1.834,9.093-5.205,12.47c-3.309,3.291-7.703,5.058-12.396,5.058
					c-4.181,0-8.142-1.987-11.299-4.619v23.098h-6.302V23.973h6.302v3.888c3.157-2.645,7.118-4.619,11.299-4.619
					c4.693,0,9.087,1.756,12.396,5.059C135.974,31.676,137.809,36.077,137.809,40.769z M131.495,40.769
					c0-6.241-5.052-11.373-11.287-11.373c-6.235,0-11.299,5.132-11.299,11.373s5.065,11.36,11.299,11.36
					C126.443,52.129,131.495,47.01,131.495,40.769z"/>
				<path class="st0" d="M169.226,23.973h6.308v33.593h-6.308v-3.888c-3.151,2.632-7.112,4.619-11.287,4.619
					c-4.699,0-9.099-1.767-12.475-5.058c-3.297-3.377-5.125-7.777-5.125-12.47c0-4.692,1.828-9.093,5.125-12.469
					c3.376-3.303,7.777-5.059,12.475-5.059c4.175,0,8.136,1.975,11.287,4.619V23.973z M169.226,40.769
					c0-6.241-5.058-11.373-11.287-11.373c-6.235,0-11.299,5.132-11.299,11.373s5.065,11.36,11.299,11.36
					C164.168,52.129,169.226,47.01,169.226,40.769z"/>
				<path class="st0" d="M178.935,14.368c0-2.267,1.834-4.108,4.181-4.108c2.273,0,4.102,1.841,4.102,4.108
					c0,2.267-1.828,4.181-4.102,4.181C180.769,18.549,178.935,16.635,178.935,14.368z M179.959,23.973h6.308v33.593h-6.308V23.973z"
					/>
			</g>
		</g>
		<g>
			<path class="st0" d="M191.471,52.898h0.475v1.755h0.018c0.091-0.134,0.189-0.268,0.28-0.39l1.121-1.365h0.579l-1.323,1.548
				l1.426,2.097h-0.555l-1.201-1.792l-0.347,0.403v1.39h-0.475V52.898z"/>
		</g>
	</g>
</g>
<rect x="218.332" class="st0" width="1.333" height="80.88"/>
<g>
	<g>
		<path class="st0" d="M275.187,55.617h-4.391L259.2,39.673h-4.349v15.944h-3.666V25.263h10.531c1.918,0,3.709,0.768,5.073,2.132
			s2.131,3.155,2.131,5.073c0,3.368-2.345,6.182-5.457,6.992L275.187,55.617z M254.852,36.006h6.864
			c1.961,0,3.537-1.577,3.537-3.538c0-1.961-1.577-3.538-3.537-3.538h-6.864V36.006z"/>
		<path class="st0" d="M300.011,25.263h9.805c8.611,0,15.604,6.821,15.604,15.178c0,8.355-6.992,15.177-15.604,15.177h-9.805V25.263
			z M321.626,40.441c0-6.267-5.287-11.468-11.809-11.468h-6.011v22.936h6.011C316.339,51.908,321.626,46.708,321.626,40.441z"/>
	</g>
	<g>
		<path class="st0" d="M284.284,29.317c0.883,0,1.673,0.136,2.371,0.407c0.697,0.271,1.293,0.633,1.79,1.084
			c0.497,0.451,0.889,0.968,1.174,1.55c0.286,0.582,0.454,1.184,0.505,1.806l-2.363,0.497c-0.031,0.01-0.064,0.015-0.098,0.015
			c-0.036,0-0.068,0-0.098,0c-0.172,0-0.324-0.047-0.46-0.142c-0.135-0.095-0.243-0.243-0.324-0.444
			c-0.09-0.261-0.206-0.509-0.345-0.745c-0.141-0.235-0.311-0.441-0.513-0.617s-0.437-0.316-0.708-0.421
			c-0.271-0.105-0.582-0.158-0.932-0.158c-0.421,0-0.798,0.073-1.129,0.218s-0.612,0.341-0.842,0.587
			c-0.232,0.245-0.407,0.532-0.528,0.858c-0.119,0.326-0.18,0.67-0.18,1.031c0,0.301,0.033,0.592,0.098,0.873
			c0.065,0.281,0.167,0.561,0.308,0.842c0.141,0.281,0.324,0.57,0.55,0.866c0.226,0.296,0.505,0.615,0.835,0.956l5.78,6.006
			c0.331-0.632,0.598-1.299,0.799-2.002c0.2-0.702,0.33-1.415,0.39-2.138c0.02-0.23,0.096-0.416,0.226-0.557
			c0.13-0.14,0.311-0.211,0.542-0.211h2.332c-0.009,1.325-0.2,2.589-0.571,3.793c-0.372,1.204-0.903,2.313-1.595,3.326l4.561,4.726
			h-3.642c-0.19,0-0.359-0.01-0.505-0.03c-0.146-0.02-0.283-0.057-0.413-0.113c-0.13-0.055-0.256-0.128-0.376-0.218
			c-0.121-0.09-0.246-0.205-0.376-0.346l-1.505-1.55c-0.963,0.783-2.035,1.395-3.213,1.837c-1.178,0.441-2.456,0.662-3.831,0.662
			c-0.842,0-1.665-0.143-2.467-0.429c-0.804-0.286-1.521-0.7-2.153-1.242c-0.633-0.541-1.141-1.196-1.529-1.964
			c-0.386-0.768-0.579-1.633-0.579-2.596c0-0.672,0.11-1.312,0.331-1.92c0.22-0.607,0.527-1.172,0.918-1.693
			c0.39-0.521,0.855-0.993,1.392-1.415c0.536-0.421,1.126-0.783,1.769-1.083c-0.533-0.753-0.921-1.487-1.168-2.205
			c-0.245-0.717-0.369-1.432-0.369-2.145c0-0.753,0.138-1.467,0.415-2.145c0.276-0.678,0.677-1.267,1.203-1.769
			c0.527-0.502,1.172-0.901,1.934-1.196S283.321,29.317,284.284,29.317z M279.047,45.032c0,0.552,0.094,1.048,0.285,1.49
			c0.19,0.442,0.452,0.815,0.784,1.121c0.33,0.307,0.714,0.542,1.151,0.708c0.437,0.166,0.901,0.249,1.392,0.249
			c0.883,0,1.688-0.138,2.416-0.414c0.728-0.276,1.392-0.66,1.995-1.151l-5.719-5.87c-0.804,0.522-1.388,1.109-1.755,1.761
			C279.23,43.577,279.047,44.279,279.047,45.032z"/>
	</g>
</g>
</svg>