<!-- Generator: Adobe Illustrator 19.0.0, SVG Export Plug-In  -->
<svg version="1.1"
	 xmlns="http://www.w3.org/2000/svg" xmlns:xlink="http://www.w3.org/1999/xlink" xmlns:a="http://ns.adobe.com/AdobeSVGViewerExtensions/3.0/"
	 x="0px" y="0px" width="310.041px" height="105.237px" viewBox="0 0 310.041 105.237"
	 style="enable-background:new 0 0 310.041 105.237;" xml:space="preserve">
<style type="text/css">
	.st0{fill:#FFFFFF;}
</style>
<defs>
</defs>
<g>
	<path class="st0" d="M52.621,0C23.559,0,0,23.56,0,52.62c0,29.057,23.559,52.617,52.621,52.617
		c29.061,0,52.618-23.561,52.618-52.617C105.239,23.56,81.682,0,52.621,0z M78.045,78.946L63.612,53.995h2.104
		c3.554,0,7.397-0.215,9.646-1.957c2.104-1.742,3.408-4.57,3.408-7.832c0-3.266-1.596-6.238-3.988-7.76
		c-1.958-1.234-4.568-1.67-7.615-1.67h-6.141v23.5c0,7.977-1.521,12.764-5.655,16.535c-3.265,3.119-7.835,5.15-13.78,5.15
		c-3.842,0-10.01-1.016-13.999-5.15c-4.931-4.715-5.657-9.357-5.657-16.535V25.274h10.808v33.002c0,2.682,0.071,5.439,1.522,8.121
		c1.305,2.322,3.7,4.062,7.252,4.062c3.625,0,6.02-1.666,7.183-3.844c0.94-1.613,1.298-3.311,1.437-5.055h-0.086V25.274h0.172
		h10.805h5.271c8.339,0,13.125,1.307,16.028,3.412c4.425,3.189,6.819,8.629,6.819,14.576c0,3.918-1.092,7.396-2.904,10.01
		c-2.319,3.408-5.366,4.932-8.848,5.803L89.36,78.946H78.045z"/>
	<g>
		<g>
			<g>
				<g>
					<path class="st0" d="M288.529,60.837 M289.16,51.714v9.195h0.536c12.66,0,20.345-6.705,20.345-17.555
						c0-11.229-7.685-17.633-20.345-17.633h-18.46v52.742h10.474V60.909v-9.195V35.29h8.288c6.327,0,9.57,2.936,9.57,8.213
						c0,5.123-3.088,8.211-9.57,8.211H289.16 M288.529,51.733"/>
				</g>
			</g>
			<g>
				<g>
					<g>
						<g>
							<path class="st0" d="M164.973,60.81c-3.21,10.912-13.479,18.684-25.816,18.684c-16.119,0-27.672-12.764-27.672-27.455
								c0-14.053,10.91-27.314,27.598-27.314c15.191,0.072,23.821,11.268,25.891,18.971h-11.196
								c-1.642-3.639-6.348-9.559-14.764-9.627c-10.27,0-16.903,8.627-16.903,17.971c0,9.627,6.92,18.113,16.973,18.113
								c9.417,0,13.694-7.416,14.694-9.342H164.973z"/>
						</g>
					</g>
					<g>
						<g>
							<path class="st0" d="M168.594,52.538c0-16.902,12.979-27.814,27.669-27.814c15.976,0,27.745,12.408,27.745,27.385
								c0,14.975-11.697,27.385-27.814,27.385c-16.19,0-27.6-12.764-27.6-26.887V52.538z M179.22,52.108
								c0,9.627,6.917,18.043,17.188,18.043c10.699,0,16.972-9.269,16.972-17.971c0-8.846-6.272-18.113-17.043-18.113
								c-10.557,0-17.116,8.697-17.116,17.971V52.108z"/>
						</g>
					</g>
					<g>
						<g>
							<path class="st0" d="M228.028,25.722H244c8.203,0,12.913,1.285,15.764,3.352c4.349,3.139,6.703,8.486,6.703,14.334
								c0,3.852-1.072,7.273-2.854,9.842c-2.283,3.352-5.275,4.852-8.699,5.707l11.766,19.539h-11.124l-14.194-24.533h2.07
								c3.495,0,7.273-0.213,9.484-1.924c2.068-1.713,3.351-4.494,3.351-7.703c0-3.207-1.569-6.133-3.922-7.633
								c-1.925-1.211-4.491-1.637-7.486-1.637h-6.206v43.43h-10.624V25.722z"/>
						</g>
					</g>
				</g>
			</g>
		</g>
	</g>
</g>
</svg>