<?xml version="1.0" encoding="utf-8"?>
<!-- Generator: Adobe Illustrator 19.0.0, SVG Export Plug-In . SVG Version: 6.00 Build 0)  -->
<svg version="1.1" id="Capa_1" xmlns="http://www.w3.org/2000/svg" xmlns:xlink="http://www.w3.org/1999/xlink" x="0px" y="0px"
	 viewBox="-142 368.7 310 105.2" style="enable-background:new -142 368.7 310 105.2;" xml:space="preserve">
<g>
	<path d="M-89.4,368.7c-29.1,0-52.6,23.6-52.6,52.6c0,29.1,23.6,52.6,52.6,52.6c29.1,0,52.6-23.6,52.6-52.6
		C-36.8,392.2-60.3,368.7-89.4,368.7z M-64,447.6l-14.4-25h2.1c3.6,0,7.4-0.2,9.6-2c2.1-1.7,3.4-4.6,3.4-7.8c0-3.3-1.6-6.2-4-7.8
		c-2-1.2-4.6-1.7-7.6-1.7H-81v23.5c0,8-1.5,12.8-5.7,16.5c-3.3,3.1-7.8,5.1-13.8,5.1c-3.8,0-10-1-14-5.1c-4.9-4.7-5.7-9.4-5.7-16.5
		v-33h10.8v33c0,2.7,0.1,5.4,1.5,8.1c1.3,2.3,3.7,4.1,7.3,4.1c3.6,0,6-1.7,7.2-3.8c0.9-1.6,1.3-3.3,1.4-5.1h-0.1v-36.3h0.2H-81h5.3
		c8.3,0,13.1,1.3,16,3.4c4.4,3.2,6.8,8.6,6.8,14.6c0,3.9-1.1,7.4-2.9,10c-2.3,3.4-5.4,4.9-8.8,5.8l12,19.9H-64z"/>
	<g>
		<g>
			<g>
				<g>
					<path d="M147.2,420.4v9.2h0.5c12.7,0,20.3-6.7,20.3-17.6c0-11.2-7.7-17.6-20.3-17.6h-18.5v52.7h10.5v-17.6v-9.2v-16.4h8.3
						c6.3,0,9.6,2.9,9.6,8.2c0,5.1-3.1,8.2-9.6,8.2H147.2"/>
				</g>
			</g>
			<g>
				<g>
					<g>
						<g>
							<path d="M23,429.5c-3.2,10.9-13.5,18.7-25.8,18.7c-16.1,0-27.7-12.8-27.7-27.5c0-14.1,10.9-27.3,27.6-27.3
								c15.2,0.1,23.8,11.3,25.9,19H11.8c-1.6-3.6-6.3-9.6-14.8-9.6c-10.3,0-16.9,8.6-16.9,18c0,9.6,6.9,18.1,17,18.1
								c9.4,0,13.7-7.4,14.7-9.3L23,429.5L23,429.5z"/>
						</g>
					</g>
					<g>
						<g>
							<path d="M26.6,421.2c0-16.9,13-27.8,27.7-27.8c16,0,27.7,12.4,27.7,27.4c0,15-11.7,27.4-27.8,27.4
								C38,448.1,26.6,435.4,26.6,421.2L26.6,421.2z M37.2,420.8c0,9.6,6.9,18,17.2,18c10.7,0,17-9.3,17-18c0-8.8-6.3-18.1-17-18.1
								C43.8,402.7,37.2,411.4,37.2,420.8L37.2,420.8L37.2,420.8z"/>
						</g>
					</g>
					<g>
						<g>
							<path d="M86,394.4h16c8.2,0,12.9,1.3,15.8,3.4c4.3,3.1,6.7,8.5,6.7,14.3c0,3.9-1.1,7.3-2.9,9.8c-2.3,3.4-5.3,4.9-8.7,5.7
								l11.8,19.5h-11.1l-14.2-24.5h2.1c3.5,0,7.3-0.2,9.5-1.9c2.1-1.7,3.4-4.5,3.4-7.7c0-3.2-1.6-6.1-3.9-7.6
								c-1.9-1.2-4.5-1.6-7.5-1.6h-6.2v43.4H86L86,394.4L86,394.4z"/>
						</g>
					</g>
				</g>
			</g>
		</g>
	</g>
</g>
</svg>
