<?xml version="1.0" standalone="no"?>
<!DOCTYPE svg PUBLIC "-//W3C//DTD SVG 20010904//EN"
 "http://www.w3.org/TR/2001/REC-SVG-20010904/DTD/svg10.dtd">
<svg version="1.0" xmlns="http://www.w3.org/2000/svg"
 width="199.000000pt" height="199.000000pt" viewBox="0 0 199.000000 199.000000"
 preserveAspectRatio="xMidYMid meet">
<metadata>
Created by potrace 1.11, written by Peter Selinger 2001-2013
</metadata>
<g transform="translate(0.000000,199.000000) scale(0.100000,-0.100000)"
fill="#000000" stroke="none">
<path d="M584 1533 c3 -6 2 -14 -4 -18 -5 -3 -10 -1 -10 4 0 6 -5 11 -11 11
-5 0 -7 -5 -3 -12 5 -8 2 -9 -9 -5 -10 3 -17 2 -17 -2 0 -10 -19 -9 -37 2 -9
6 -11 3 -6 -9 5 -14 2 -16 -15 -12 -12 4 -20 2 -16 -3 3 -5 -3 -9 -13 -9 -15
0 -16 -2 -3 -11 12 -8 10 -9 -7 -4 -14 4 -23 2 -23 -5 0 -6 -4 -9 -9 -5 -6 3
-14 -3 -20 -12 -6 -10 -11 -14 -11 -9 0 5 -7 3 -15 -4 -8 -6 -20 -8 -26 -4 -7
4 -9 3 -5 -4 7 -12 -32 -38 -49 -33 -5 1 -7 0 -3 -4 7 -7 -61 -75 -74 -75 -5
0 -8 -7 -8 -15 0 -9 -10 -20 -23 -25 -12 -5 -16 -9 -9 -9 8 -1 1 -18 -19 -48
-18 -25 -26 -42 -18 -38 12 8 12 6 0 -8 -7 -9 -10 -17 -7 -17 4 0 1 -7 -8 -15
-8 -8 -13 -24 -11 -35 2 -11 0 -20 -5 -20 -5 0 -7 -7 -4 -15 4 -9 0 -15 -7
-15 -11 0 -11 -2 0 -9 12 -8 12 -12 2 -24 -8 -11 -9 -17 -1 -22 6 -3 7 -12 3
-18 -11 -18 -11 -47 0 -47 5 0 3 -8 -4 -17 -12 -14 -12 -16 0 -8 11 6 13 4 8
-7 -3 -9 0 -21 6 -27 8 -8 7 -11 -3 -11 -11 -1 -11 -3 3 -11 9 -5 17 -15 17
-22 0 -7 -4 -6 -10 3 -5 8 -10 10 -10 5 0 -6 5 -16 11 -22 7 -7 13 -22 14 -35
4 -38 5 -39 14 -34 5 3 12 -5 15 -19 4 -14 11 -25 17 -25 6 0 7 -4 4 -10 -3
-5 -1 -10 5 -10 7 0 10 -7 6 -15 -3 -8 -2 -14 2 -12 4 1 24 -15 44 -36 21 -20
42 -37 48 -37 6 0 8 -5 5 -10 -3 -5 1 -10 10 -10 8 0 18 -6 21 -14 3 -9 12
-12 21 -9 10 4 14 2 9 -5 -4 -6 3 -12 16 -14 13 -2 22 -8 21 -14 -1 -5 12 -9
28 -8 16 1 29 -2 29 -8 0 -5 10 -6 21 -3 16 5 19 4 14 -6 -6 -9 -3 -11 8 -6
10 3 17 3 17 -1 0 -5 10 -8 23 -9 31 0 51 -6 59 -18 5 -6 8 -5 8 3 0 10 4 9
16 -2 8 -9 20 -13 25 -10 6 3 40 7 77 9 72 2 122 13 122 24 0 4 -21 7 -46 7
-71 -1 -65 12 9 17 9 1 18 5 18 9 2 10 6 25 9 36 1 4 2 10 1 14 0 4 8 10 19
13 31 10 24 26 -7 19 -16 -4 -30 -10 -33 -13 -16 -19 -186 -23 -221 -5 -15 7
-29 11 -32 8 -3 -3 -27 7 -54 21 -67 38 -84 51 -76 58 3 4 0 7 -7 7 -26 0
-101 97 -105 135 0 6 -6 20 -13 31 -6 12 -14 37 -16 55 -3 19 -7 43 -10 55 -2
11 0 27 4 34 5 8 4 22 -1 32 -5 10 -6 18 -1 18 7 0 12 19 15 63 1 9 5 17 10
17 4 0 5 5 2 10 -3 6 -1 10 5 10 6 0 8 5 5 10 -3 6 -1 10 5 10 6 0 8 5 5 10
-3 6 -1 10 4 10 6 0 11 7 11 15 0 7 8 19 18 24 9 6 14 11 10 11 -4 0 8 16 27
36 20 21 40 32 46 28 7 -4 9 -3 6 3 -4 6 1 17 10 24 14 12 16 12 8 -1 -5 -8 5
-3 23 12 19 16 41 25 52 23 11 -2 18 0 15 4 -6 11 23 23 36 15 5 -3 9 -1 9 3
0 5 9 9 20 10 13 1 18 -2 13 -10 -3 -7 3 -3 15 7 12 11 22 15 22 10 0 -5 25
-9 56 -9 30 1 58 -3 60 -7 3 -5 10 -6 15 -3 5 4 9 1 9 -6 0 -6 8 -9 20 -6 11
3 20 2 20 -1 0 -4 18 -16 40 -26 22 -11 40 -23 40 -28 0 -5 5 -6 10 -3 6 3 10
2 10 -3 0 -14 43 -9 48 6 2 6 -2 12 -9 12 -7 0 -9 3 -6 7 4 3 -5 15 -20 25
-16 10 -24 18 -19 18 6 0 1 7 -10 16 -18 14 -18 15 4 4 12 -6 22 -15 22 -20 0
-6 6 -10 14 -10 8 0 21 -9 29 -20 8 -11 17 -17 20 -13 4 3 7 -2 7 -12 0 -10 3
-15 6 -12 4 3 16 1 27 -5 17 -9 19 -8 13 8 -5 16 -4 17 6 4 7 -9 19 -15 27
-15 27 0 22 24 -13 58 -19 19 -32 37 -29 41 4 3 -1 6 -11 6 -9 0 -14 5 -11 10
3 6 -3 10 -15 10 -12 0 -18 5 -15 10 3 6 -1 10 -10 10 -10 0 -13 5 -9 12 5 8
2 9 -9 5 -11 -4 -17 -1 -17 9 0 8 -4 12 -10 9 -5 -3 -10 -1 -10 5 0 6 -4 8
-10 5 -5 -3 -10 2 -11 12 0 11 -3 13 -6 5 -4 -10 -9 -9 -20 5 -8 10 -12 12 -8
6 3 -7 1 -13 -4 -13 -6 0 -11 5 -11 10 0 6 -9 10 -20 10 -11 0 -20 5 -20 11 0
5 -4 8 -8 5 -5 -3 -21 2 -36 9 -25 13 -27 13 -22 -1 4 -10 2 -13 -7 -7 -6 4
-15 8 -19 9 -5 1 -9 3 -10 4 -7 7 -56 5 -52 -2 3 -4 0 -8 -5 -8 -6 0 -11 5
-11 11 0 8 -6 7 -17 -2 -15 -12 -16 -12 -8 1 7 12 6 13 -6 3 -12 -10 -18 -10
-29 0 -9 8 -11 9 -6 0z m203 -65 c7 -1 10 -5 7 -10 -3 -4 -1 -8 5 -8 5 0 12 6
14 13 4 9 6 9 6 0 1 -16 -16 -26 -31 -17 -7 4 -26 9 -43 11 -51 5 -55 6 -55
14 0 6 26 5 97 -3z m-237 -18 c0 -5 -7 -11 -15 -11 -24 -2 -28 -4 -75 -28 -25
-13 -47 -23 -49 -22 -2 2 -8 -3 -13 -11 -8 -10 -9 -10 -5 2 2 8 10 15 18 15 8
1 13 6 12 13 -2 6 4 9 12 6 8 -4 15 -1 15 5 0 6 3 10 8 10 19 -3 33 2 27 10
-3 6 3 8 15 6 11 -2 22 0 25 6 8 12 25 12 25 -1z m60 6 c0 -7 -40 -14 -44 -7
-3 4 6 8 20 9 13 1 24 0 24 -2z m262 -31 c5 -6 8 -4 8 5 0 10 3 11 8 4 4 -6
26 -21 49 -34 23 -13 44 -29 47 -37 3 -8 -9 -3 -27 10 -27 21 -58 37 -77 41
-3 1 -15 7 -26 14 -12 6 -24 8 -28 4 -4 -3 -4 1 0 11 5 15 9 15 23 5 9 -7 19
-17 23 -23z m-79 -13 c8 -7 16 -10 19 -7 3 3 11 -1 18 -10 7 -8 17 -15 22 -15
5 0 18 -9 30 -20 12 -11 19 -20 15 -20 -12 0 -61 32 -74 49 -8 9 -13 10 -13 3
0 -7 -4 -12 -10 -12 -5 0 -10 7 -10 15 0 8 -5 15 -11 15 -5 0 -8 -4 -4 -9 3
-6 -7 -6 -26 -1 -18 5 -36 7 -40 4 -5 -3 -9 0 -9 7 0 8 -4 8 -12 1 -7 -5 -22
-6 -33 -2 -11 4 -28 3 -37 -1 -13 -7 -16 -6 -13 3 7 17 168 16 188 0z m-213
-2 c-8 -5 -19 -10 -25 -10 -5 0 -3 5 5 10 8 5 20 10 25 10 6 0 3 -5 -5 -10z
m-203 -46 c-3 -3 -12 -4 -19 -1 -8 3 -5 6 6 6 11 1 17 -2 13 -5z m653 -48 c0
-6 -7 -1 -15 10 -8 10 -15 23 -15 28 0 6 7 1 15 -10 8 -10 15 -23 15 -28z
m-787 -21 c-3 -9 -8 -14 -10 -11 -3 3 -2 9 2 15 9 16 15 13 8 -4z m857 -5 c0
-5 -2 -10 -4 -10 -3 0 -8 5 -11 10 -3 6 -1 10 4 10 6 0 11 -4 11 -10z m-880
-20 c0 -5 -5 -10 -11 -10 -5 0 -7 5 -4 10 3 6 8 10 11 10 2 0 4 -4 4 -10z
m-12 -37 c-20 -25 -36 -65 -32 -86 1 -10 -2 -14 -9 -10 -7 4 -8 0 -4 -11 4
-10 3 -15 -3 -11 -6 3 -10 1 -10 -4 0 -6 5 -11 11 -11 5 0 7 -5 4 -10 -4 -6
-11 -8 -16 -5 -15 10 -10 -2 9 -21 16 -17 16 -17 -5 -12 -13 3 -23 2 -23 -3 0
-5 6 -9 13 -9 7 0 13 -9 13 -20 0 -11 -4 -20 -8 -20 -4 0 -8 -5 -8 -11 0 -5 6
-7 12 -3 8 5 7 0 -2 -11 -9 -11 -10 -16 -2 -11 15 9 16 -6 1 -21 -8 -8 -7 -13
2 -18 8 -6 10 -4 4 5 -5 8 -4 11 2 7 12 -7 11 -46 -1 -66 -6 -10 -5 -12 2 -7
7 4 12 1 12 -8 0 -9 5 -16 10 -16 6 0 10 -5 10 -11 0 -5 -6 -7 -12 -4 -7 4 -4
-1 7 -10 20 -17 20 -17 -5 -11 l-25 7 25 -15 c14 -9 19 -15 13 -16 -7 0 -13
-4 -13 -10 0 -5 7 -7 15 -3 9 3 15 2 14 -3 -1 -5 0 -11 1 -14 9 -25 6 -38 -8
-32 -9 3 -11 7 -5 9 6 2 1 14 -12 27 -24 24 -55 116 -58 172 -1 19 -6 34 -12
34 -5 0 -4 4 4 9 7 5 9 11 4 14 -7 4 -7 27 0 64 5 32 9 64 10 71 0 6 4 12 9
12 5 0 6 5 3 10 -3 6 2 10 12 10 15 0 16 2 3 11 -11 8 -12 12 -2 16 6 2 12 10
12 17 0 13 36 56 47 56 3 0 0 -8 -9 -17z m15 -308 c4 -8 3 -16 -1 -19 -4 -3
-9 4 -9 15 -2 23 3 25 10 4z m4 -65 c-2 -23 -10 -17 -12 10 -1 10 2 17 6 14 4
-2 7 -13 6 -24z m20 -35 c0 -8 -4 -15 -9 -15 -10 0 -11 14 -1 23 9 10 10 9 10
-8z m13 -34 c0 -6 -5 -13 -12 -17 -6 -4 -8 -3 -4 4 3 5 0 13 -6 15 -8 3 -6 6
5 6 9 1 17 -3 17 -8z m16 -46 c1 -8 -3 -18 -8 -22 -6 -3 -8 -1 -4 5 3 5 1 12
-6 14 -6 2 -8 10 -4 17 9 14 19 8 22 -14z m17 -30 c-3 -9 -2 -15 3 -13 11 3
94 -81 94 -95 0 -5 7 -7 15 -3 8 3 20 -3 27 -12 7 -9 22 -19 33 -20 27 -5 31
-10 17 -24 -9 -9 -12 -9 -12 1 0 7 -4 10 -9 6 -5 -3 -12 -1 -16 5 -4 6 -11 7
-17 4 -6 -4 -8 -2 -4 4 3 6 -3 14 -15 17 -36 12 -109 84 -102 102 4 10 2 14
-5 9 -13 -8 -26 10 -17 24 10 15 15 12 8 -5z m-52 -32 c13 -17 13 -17 -6 -3
-11 8 -22 16 -24 17 -2 2 0 3 6 3 6 0 17 -8 24 -17z m331 -149 c18 -3 43 -6
55 -6 12 -1 20 -5 18 -9 -7 -10 -108 -1 -115 11 -4 6 -14 8 -23 4 -13 -5 -16
-2 -11 10 5 12 10 13 25 6 10 -6 33 -13 51 -16z m128 -8 c0 -2 -9 -6 -20 -9
-11 -3 -18 -1 -14 4 5 9 34 13 34 5z"/>
<path d="M340 645 c19 -19 36 -35 39 -35 3 0 -10 16 -29 35 -19 19 -36 35 -39
35 -3 0 10 -16 29 -35z"/>
<path d="M1242 1438 c-9 -11 -42 -123 -42 -142 0 -3 23 -6 50 -6 28 0 50 5 50
10 0 6 -16 10 -36 10 -29 0 -35 3 -30 16 3 9 6 20 6 25 0 5 15 9 34 9 19 0 38
5 41 10 4 6 -8 10 -29 10 -36 0 -41 5 -30 34 4 11 19 16 46 16 23 0 37 4 33
10 -9 14 -81 12 -93 -2z"/>
<path d="M1380 1440 c0 -6 7 -22 17 -36 16 -24 15 -26 -22 -64 -46 -48 -39
-67 8 -22 18 18 36 32 39 32 3 0 11 -13 17 -30 5 -16 15 -30 20 -30 15 0 14
16 -5 52 -16 30 -15 31 22 69 25 25 33 39 23 39 -9 0 -28 -14 -44 -31 l-28
-32 -13 32 c-12 29 -34 43 -34 21z"/>
<path d="M1542 1377 c-25 -87 -25 -87 -11 -87 5 0 14 13 20 28 8 22 19 30 51
38 81 18 83 80 2 91 l-40 5 -22 -75z m89 37 c11 -14 10 -18 -6 -30 -20 -15
-55 -19 -55 -6 1 48 34 68 61 36z"/>
<path d="M1754 1439 c-48 -24 -65 -109 -28 -136 10 -7 30 -13 45 -13 62 0 99
38 99 100 0 49 -61 75 -116 49z m80 -24 c30 -30 -7 -105 -52 -105 -53 0 -69
46 -31 94 23 29 59 34 83 11z"/>
<path d="M593 1218 c-8 -11 -257 -416 -270 -440 -2 -5 31 -8 74 -8 l78 0 49
88 c92 162 98 173 102 169 3 -3 11 -132 13 -214 l1 -43 73 0 72 1 74 129 c41
71 77 127 80 125 3 -3 6 -51 7 -108 1 -56 2 -112 3 -124 1 -22 5 -23 77 -23
l75 0 -6 93 c-4 50 -8 99 -10 107 -2 8 -7 58 -11 110 -4 52 -8 102 -10 110 -1
8 -3 21 -3 28 -1 8 -23 12 -75 12 -74 0 -74 0 -93 -34 -54 -100 -129 -226
-133 -226 -3 0 -6 19 -6 43 -1 23 -3 81 -5 130 l-3 87 -72 0 c-45 0 -75 -5
-81 -12z"/>
<path d="M1105 1153 c4 -43 9 -94 11 -113 2 -19 6 -69 10 -110 4 -41 8 -84 9
-95 1 -11 3 -30 4 -42 1 -22 5 -23 74 -23 l73 0 77 132 c42 73 77 131 78 128
4 -18 8 -79 11 -163 l3 -98 75 3 74 3 138 224 c76 122 138 225 138 227 0 2
-35 4 -77 4 l-78 0 -73 -131 c-41 -72 -76 -129 -78 -126 -3 3 -10 126 -13 230
l-1 28 -72 -3 -73 -3 -74 -128 c-41 -70 -76 -126 -78 -124 -2 2 -5 55 -7 118
-2 63 -4 120 -5 127 -1 8 -23 12 -77 12 l-75 0 6 -77z"/>
<path d="M923 698 c-48 -13 -40 -26 15 -25 41 2 47 -1 50 -20 2 -17 -13 -34
-72 -77 -42 -31 -76 -60 -76 -64 0 -5 36 -9 80 -9 55 0 80 3 77 11 -2 6 -21
12 -43 12 -21 1 -43 2 -48 3 -6 1 18 22 52 47 34 25 62 50 62 54 0 5 2 14 5
22 12 34 -47 61 -102 46z"/>
<path d="M1102 694 c-74 -31 -93 -173 -24 -191 63 -15 122 46 122 127 0 66
-37 90 -98 64z m63 -37 c17 -65 -33 -148 -78 -131 -49 18 -6 154 48 154 17 0
26 -7 30 -23z"/>
<path d="M1433 702 c-54 -5 -37 -21 26 -24 l60 -3 -45 -60 c-25 -33 -54 -70
-64 -82 -21 -24 -9 -43 15 -23 22 18 138 181 132 186 -6 7 -82 10 -124 6z"/>
<path d="M1273 683 c-18 -9 -33 -20 -33 -25 0 -12 34 -10 48 4 16 16 15 4 -8
-76 -11 -38 -17 -73 -14 -77 12 -20 24 -6 39 49 8 31 22 76 29 100 13 40 12
42 -8 41 -11 0 -36 -8 -53 -16z"/>
</g>
</svg>
