<!-- Generator: Adobe Illustrator 19.0.0, SVG Export Plug-In  -->
<svg version="1.1"
	 xmlns="http://www.w3.org/2000/svg" xmlns:xlink="http://www.w3.org/1999/xlink" xmlns:a="http://ns.adobe.com/AdobeSVGViewerExtensions/3.0/"
	 x="0px" y="0px" width="62px" height="70.455px" viewBox="0 0 62 70.455" style="enable-background:new 0 0 62 70.455;"
	 xml:space="preserve">
<defs>
</defs>
<path d="M0,22.545v42.206c0,3.15,2.524,5.703,5.636,5.703h50.727c3.113,0,5.636-2.553,5.636-5.703V22.545H0z M15.5,66.227H4.227
	V54.955H15.5V66.227z M15.5,52.136H4.227V40.864H15.5V52.136z M15.5,38.045H4.227V26.773H15.5V38.045z M29.591,66.227H18.318V54.955
	h11.273V66.227z M29.591,52.136H18.318V40.864h11.273V52.136z M29.591,38.045H18.318V26.773h11.273V38.045z M43.682,66.227H32.409
	V54.955h11.273V66.227z M43.682,52.136H32.409V40.864h11.273V52.136z M43.682,38.045H32.409V26.773h11.273V38.045z M57.773,66.227
	H46.5V54.955h11.273V66.227z M57.773,52.136H46.5V40.864h11.273V52.136z M57.773,38.045H46.5V26.773h11.273V38.045z"/>
<path d="M56.364,8.455h-9.159V2.114C47.205,0.946,46.258,0,45.091,0c-1.167,0-2.114,0.946-2.114,2.114v6.341H19.023V2.114
	C19.023,0.946,18.076,0,16.909,0c-1.167,0-2.114,0.946-2.114,2.114v6.341H5.636C2.524,8.455,0,11.007,0,14.156v4.866l0,0v0.705h62
	v-0.705l0,0v-4.866C62,11.007,59.476,8.455,56.364,8.455z M16.909,18.318c-2.334,0-4.227-1.893-4.227-4.227
	c0-1.563,0.852-2.925,2.114-3.657v3.657c0,1.167,0.946,2.114,2.114,2.114c1.167,0,2.114-0.946,2.114-2.114v-3.657
	c1.263,0.731,2.114,2.094,2.114,3.657C21.136,16.425,19.244,18.318,16.909,18.318z M45.091,18.318c-2.334,0-4.227-1.893-4.227-4.227
	c0-1.563,0.852-2.925,2.114-3.657v3.657c0,1.167,0.946,2.114,2.114,2.114c1.167,0,2.114-0.946,2.114-2.114v-3.657
	c1.263,0.731,2.114,2.094,2.114,3.657C49.318,16.425,47.426,18.318,45.091,18.318z"/>
</svg>